<svg width="1200" height="630" viewBox="0 0 1200 630" role="img" xmlns="http://www.w3.org/2000/svg">
<title>Heario OG image</title>
<desc>Heario — AI Copilot for Meetings. Dark futuristic social preview card.</desc>
<defs>
  <radialGradient id="bgGlow" cx="50%" cy="50%" r="60%">
    <stop offset="0%" stop-color="#1a2540"/>
    <stop offset="100%" stop-color="#0b0e13"/>
  </radialGradient>
  <radialGradient id="panelGlow" cx="50%" cy="40%" r="60%">
    <stop offset="0%" stop-color="#4f8ef7" stop-opacity="0.18"/>
    <stop offset="100%" stop-color="#0b0e13" stop-opacity="0"/>
  </radialGradient>
  <radialGradient id="aura1" cx="20%" cy="30%" r="50%">
    <stop offset="0%" stop-color="#4f8ef7" stop-opacity="0.22"/>
    <stop offset="100%" stop-color="#0b0e13" stop-opacity="0"/>
  </radialGradient>
  <radialGradient id="aura2" cx="80%" cy="70%" r="45%">
    <stop offset="0%" stop-color="#a855f7" stop-opacity="0.18"/>
    <stop offset="100%" stop-color="#0b0e13" stop-opacity="0"/>
  </radialGradient>
  <radialGradient id="aura3" cx="85%" cy="20%" r="35%">
    <stop offset="0%" stop-color="#7fd1ff" stop-opacity="0.14"/>
    <stop offset="100%" stop-color="#0b0e13" stop-opacity="0"/>
  </radialGradient>
  <linearGradient id="panelBorder" x1="0%" y1="0%" x2="100%" y2="100%">
    <stop offset="0%" stop-color="#7fd1ff" stop-opacity="0.6"/>
    <stop offset="50%" stop-color="#4f8ef7" stop-opacity="0.3"/>
    <stop offset="100%" stop-color="#a855f7" stop-opacity="0.5"/>
  </linearGradient>
  <linearGradient id="waveGrad" x1="0%" y1="0%" x2="100%" y2="0%">
    <stop offset="0%" stop-color="#4f8ef7"/>
    <stop offset="50%" stop-color="#7fd1ff"/>
    <stop offset="100%" stop-color="#a855f7"/>
  </linearGradient>
  <linearGradient id="titleGrad" x1="0%" y1="0%" x2="100%" y2="0%">
    <stop offset="0%" stop-color="#ffffff"/>
    <stop offset="40%" stop-color="#cfe0ff"/>
    <stop offset="80%" stop-color="#7fd1ff"/>
    <stop offset="100%" stop-color="#ffffff"/>
  </linearGradient>
  <filter id="glow">
    <feGaussianBlur stdDeviation="3" result="blur"/>
    <feMerge><feMergeNode in="blur"/><feMergeNode in="SourceGraphic"/></feMerge>
  </filter>
  <clipPath id="card"><rect width="1200" height="630" rx="0"/></clipPath>
</defs>
<g clip-path="url(#card)">
<rect width="1200" height="630" fill="url(#bgGlow)"/>
<rect width="1200" height="630" fill="url(#aura1)"/>
<rect width="1200" height="630" fill="url(#aura2)"/>
<rect width="1200" height="630" fill="url(#aura3)"/>
<g stroke="#4f8ef7" stroke-opacity="0.08" stroke-width="1">
  <line x1="0" y1="63" x2="1200" y2="63"/><line x1="0" y1="126" x2="1200" y2="126"/><line x1="0" y1="189" x2="1200" y2="189"/><line x1="0" y1="252" x2="1200" y2="252"/><line x1="0" y1="315" x2="1200" y2="315"/><line x1="0" y1="378" x2="1200" y2="378"/><line x1="0" y1="441" x2="1200" y2="441"/><line x1="0" y1="504" x2="1200" y2="504"/><line x1="0" y1="567" x2="1200" y2="567"/>
  <line x1="80" y1="0" x2="80" y2="630"/><line x1="160" y1="0" x2="160" y2="630"/><line x1="240" y1="0" x2="240" y2="630"/><line x1="320" y1="0" x2="320" y2="630"/><line x1="400" y1="0" x2="400" y2="630"/><line x1="480" y1="0" x2="480" y2="630"/><line x1="560" y1="0" x2="560" y2="630"/><line x1="640" y1="0" x2="640" y2="630"/><line x1="720" y1="0" x2="720" y2="630"/><line x1="800" y1="0" x2="800" y2="630"/><line x1="880" y1="0" x2="880" y2="630"/><line x1="960" y1="0" x2="960" y2="630"/><line x1="1040" y1="0" x2="1040" y2="630"/><line x1="1120" y1="0" x2="1120" y2="630"/>
</g>
<g fill="#7fd1ff">
  <circle cx="95" cy="48" r="1.5" opacity="0.6"/><circle cx="187" cy="112" r="1" opacity="0.4"/><circle cx="54" cy="210" r="2" opacity="0.5"/><circle cx="310" cy="88" r="1.5" opacity="0.5"/><circle cx="420" cy="45" r="1" opacity="0.4"/><circle cx="145" cy="340" r="1.5" opacity="0.4"/><circle cx="67" cy="420" r="2" opacity="0.35"/><circle cx="230" cy="510" r="1" opacity="0.5"/><circle cx="1050" cy="80" r="2" opacity="0.5"/><circle cx="1140" cy="145" r="1.5" opacity="0.4"/><circle cx="980" cy="50" r="1" opacity="0.6"/><circle cx="1100" cy="310" r="2" opacity="0.4"/><circle cx="1170" cy="420" r="1.5" opacity="0.5"/><circle cx="900" cy="560" r="1" opacity="0.4"/><circle cx="1050" cy="500" r="2" opacity="0.35"/><circle cx="340" cy="580" r="1.5" opacity="0.4"/><circle cx="780" cy="40" r="1" opacity="0.5"/><circle cx="820" cy="590" r="2" opacity="0.4"/><circle cx="500" cy="600" r="1.5" opacity="0.35"/>
</g>
<g fill="#4f8ef7">
  <circle cx="160" cy="155" r="1.5" opacity="0.5"/><circle cx="75" cy="300" r="1" opacity="0.6"/><circle cx="280" cy="460" r="2" opacity="0.4"/><circle cx="1080" cy="220" r="1.5" opacity="0.5"/><circle cx="950" cy="380" r="1" opacity="0.4"/><circle cx="1150" cy="540" r="2" opacity="0.35"/><circle cx="430" cy="555" r="1" opacity="0.5"/><circle cx="700" cy="580" r="1.5" opacity="0.4"/>
</g>
<g stroke="#7fd1ff" stroke-opacity="0.15" stroke-width="0.8" fill="none">
  <line x1="95" y1="48" x2="187" y2="112"/><line x1="187" y1="112" x2="160" y2="155"/><line x1="310" y1="88" x2="420" y2="45"/><line x1="1050" y1="80" x2="980" y2="50"/><line x1="1050" y1="80" x2="1140" y2="145"/><line x1="1100" y1="310" x2="1170" y2="420"/>
</g>
<rect x="300" y="100" width="600" height="430" fill="url(#panelGlow)" rx="24"/>
<rect x="340" y="130" width="520" height="370" rx="20" fill="#0d1220" fill-opacity="0.88" stroke="url(#panelBorder)" stroke-width="1.5"/>
<rect x="340" y="130" width="520" height="60" rx="20" fill="#4f8ef7" fill-opacity="0.06"/>
<rect x="340" y="170" width="520" height="20" fill="#4f8ef7" fill-opacity="0.04"/>
<g filter="url(#glow)" transform="translate(600,195)">
  <rect x="-18" y="-32" width="36" height="48" rx="18" fill="none" stroke="url(#waveGrad)" stroke-width="3"/>
  <circle cx="0" cy="-8" r="7" fill="#4f8ef7" fill-opacity="0.35"/>
  <circle cx="0" cy="-8" r="4" fill="#7fd1ff"/>
  <path d="M-28 16 Q-28 44 0 44 Q28 44 28 16" fill="none" stroke="url(#waveGrad)" stroke-width="2.5" stroke-linecap="round"/>
  <line x1="0" y1="44" x2="0" y2="58" stroke="#7fd1ff" stroke-width="2.5" stroke-linecap="round"/>
  <line x1="-20" y1="58" x2="20" y2="58" stroke="#7fd1ff" stroke-width="2.5" stroke-linecap="round"/>
</g>
<g filter="url(#glow)" fill="none" stroke="#4f8ef7" stroke-linecap="round">
  <path d="M 536 220 Q 524 235 536 250" stroke-width="2.5" stroke-opacity="0.9"/>
  <path d="M 522 210 Q 504 235 522 260" stroke-width="2" stroke-opacity="0.6"/>
  <path d="M 508 200 Q 484 235 508 270" stroke-width="1.5" stroke-opacity="0.35"/>
</g>
<g filter="url(#glow)" fill="none" stroke="#7fd1ff" stroke-linecap="round">
  <path d="M 664 220 Q 676 235 664 250" stroke-width="2.5" stroke-opacity="0.9"/>
  <path d="M 678 210 Q 696 235 678 260" stroke-width="2" stroke-opacity="0.6"/>
  <path d="M 692 200 Q 716 235 692 270" stroke-width="1.5" stroke-opacity="0.35"/>
</g>
<text x="600" y="328" text-anchor="middle" font-family="'Space Grotesk', 'Sora', system-ui, sans-serif" font-size="82" font-weight="800" letter-spacing="-3" fill="url(#titleGrad)">Heario</text>
<line x1="440" y1="348" x2="760" y2="348" stroke="url(#waveGrad)" stroke-width="1" stroke-opacity="0.5"/>
<text x="600" y="385" text-anchor="middle" font-family="'Sora', system-ui, sans-serif" font-size="22" font-weight="400" fill="#7fd1ff" letter-spacing="0.5" fill-opacity="0.9">AI Copilot for Meetings &amp; Interviews</text>
<rect x="380" y="414" width="130" height="34" rx="17" fill="#4f8ef7" fill-opacity="0.12" stroke="#4f8ef7" stroke-opacity="0.35" stroke-width="1"/>
<text x="445" y="436" text-anchor="middle" font-family="'Sora', system-ui, sans-serif" font-size="13" font-weight="600" fill="#7fd1ff">&#9889; &lt;300ms</text>
<rect x="535" y="414" width="130" height="34" rx="17" fill="#a855f7" fill-opacity="0.12" stroke="#a855f7" stroke-opacity="0.35" stroke-width="1"/>
<text x="600" y="436" text-anchor="middle" font-family="'Sora', system-ui, sans-serif" font-size="13" font-weight="600" fill="#c084fc">&#128737; Undetectable</text>
<rect x="690" y="414" width="130" height="34" rx="17" fill="#5fb85f" fill-opacity="0.12" stroke="#5fb85f" stroke-opacity="0.35" stroke-width="1"/>
<text x="755" y="436" text-anchor="middle" font-family="'Sora', system-ui, sans-serif" font-size="13" font-weight="600" fill="#86efac">&#127992; Windows</text>
<text x="600" y="490" text-anchor="middle" font-family="'JetBrains Mono', monospace" font-size="14" fill="#4f8ef7" fill-opacity="0.7" letter-spacing="1">heario-site.vercel.app</text>
<g stroke="#4f8ef7" stroke-opacity="0.4" stroke-width="1.5" fill="none">
  <path d="M 355 145 L 355 155 L 365 155"/><path d="M 845 145 L 845 155 L 835 155"/><path d="M 355 485 L 355 475 L 365 475"/><path d="M 845 485 L 845 475 L 835 475"/>
</g>
</g>
</svg>
